<svg xmlns="http://www.w3.org/2000/svg" width="397" height="397" viewBox="0 0 397 397" version="1.1">
	<path d="M 45.999 163.750 C 45.999 164.988, 46.605 166, 47.345 166 C 48.085 166, 49.435 166.823, 50.345 167.829 C 51.815 169.453, 52 173.345, 51.996 202.579 C 51.993 234.419, 51.922 235.615, 49.860 239 C 47.528 242.826, 45.611 244.451, 39.795 247.531 C 36.301 249.380, 36.082 249.730, 37.341 251.451 C 38.685 253.289, 38.899 253.292, 45.111 251.554 C 58.297 247.866, 67.008 242.024, 71.551 233.824 L 74.500 228.500 75 198 C 75.499 167.551, 75.504 167.498, 77.750 166.513 C 78.987 165.970, 80 164.753, 80 163.808 C 80 162.264, 78.286 162.061, 62.999 161.796 L 45.997 161.500 45.999 163.750 M 263.999 163.509 C 263.999 164.615, 264.900 166.081, 266 166.768 C 267.100 167.455, 268.002 168.801, 268.004 169.758 C 268.009 171.691, 258.986 185.272, 253.560 191.500 L 250.075 195.500 250.038 182.684 C 250 169.837, 250.804 166, 253.535 166 C 254.341 166, 255 165.100, 255 164 C 255 162.083, 254.333 162, 239 162 C 224.384 162, 223 162.152, 223 163.763 C 223 164.732, 224.012 165.970, 225.250 166.513 L 227.500 167.500 227.500 198 L 227.500 228.500 225.250 229.487 C 223.989 230.040, 223 231.359, 223 232.487 C 223 234.420, 223.633 234.500, 239 234.500 C 254.926 234.500, 255 234.490, 255 232.250 C 255 230.941, 254.388 230, 253.535 230 C 250.619 230, 249.943 226.187, 250.223 211.303 L 250.500 196.575 253.945 203.037 C 255.839 206.592, 259.930 215.050, 263.035 221.834 L 268.681 234.168 283.341 234.334 C 297.403 234.493, 298 234.418, 298 232.494 C 298 231.229, 296.897 230, 295.014 229.166 C 292.519 228.062, 290.466 224.749, 282.558 209.064 L 273.089 190.284 280.795 178.892 C 287.031 169.672, 289.120 167.318, 291.750 166.543 C 293.809 165.937, 295 164.947, 295 163.842 C 295 162.271, 293.462 162.068, 279.499 161.799 C 264.540 161.510, 263.997 161.570, 263.999 163.509 M 86.546 163.250 C 86.331 163.938, 85.868 168.887, 85.517 174.250 C 84.915 183.450, 84.989 184, 86.818 184 C 88.047 184, 89.231 182.856, 90.051 180.877 C 91.568 177.215, 96.060 175, 101.968 175 L 106 175 106 201.300 C 106 228.580, 105.792 230, 101.800 230 C 100.600 230, 100 230.750, 100.001 232.250 C 100.001 234.498, 100.020 234.500, 117.501 234.500 C 134.817 234.500, 135.001 234.477, 135 232.320 C 135 230.828, 134.297 230.038, 132.775 229.820 C 128.445 229.198, 127.994 226.218, 128.255 200 L 128.500 175.500 134.275 175.618 C 140.439 175.743, 143.445 177.447, 145.090 181.750 C 145.616 183.125, 146.792 184, 148.115 184 C 150.139 184, 150.238 183.660, 149.648 178.750 C 149.301 175.863, 149.013 170.912, 149.009 167.750 L 149 162 117.969 162 C 94.019 162, 86.848 162.285, 86.546 163.250 M 156 164.485 C 156 166.286, 156.537 167, 157.893 167 C 160.581 167, 161 168.827, 161 180.536 L 161 190.909 157.250 191.549 C 147.707 193.177, 135.893 196.285, 136.656 196.968 C 137.769 197.966, 149.122 200.700, 155.778 201.573 L 161.056 202.265 160.778 215.383 C 160.508 228.128, 160.436 228.509, 158.250 228.820 C 156.621 229.051, 156 229.810, 156 231.570 L 156 234 185.920 234 L 215.841 234 216.442 227.250 C 216.772 223.537, 217.249 218.588, 217.502 216.250 C 217.907 212.510, 217.721 212, 215.956 212 C 214.523 212, 213.777 212.865, 213.344 215.031 C 212.188 220.808, 209.199 222, 195.865 222 L 184 222 184 213.107 C 184 203.245, 184.167 203, 190.898 203 C 197.242 203, 219.578 198.582, 221.344 196.978 C 222.519 195.911, 206.385 192.259, 194.163 190.825 L 184 189.632 184 181.316 L 184 173 194.865 173 C 206.807 173, 210.104 174.292, 211.407 179.484 C 211.754 180.868, 212.721 182, 213.555 182 C 214.827 182, 215.026 180.425, 214.786 172.250 L 214.500 162.500 185.250 162.235 L 156 161.970 156 164.485 M 296.579 170.750 C 296.196 175.563, 295.636 180.512, 295.333 181.750 C 294.869 183.649, 295.190 184, 297.392 184 C 298.999 184, 300 183.446, 300 182.556 C 300 181.761, 301.018 179.929, 302.261 178.483 C 304.111 176.333, 305.660 175.751, 310.761 175.288 L 317 174.722 317 200.790 C 317 223.154, 316.777 227.080, 315.429 228.429 C 314.564 229.293, 313.214 230, 312.429 230 C 311.614 230, 311 230.967, 311 232.250 L 311 234.500 328.250 234.354 C 344.961 234.212, 345.510 234.142, 345.820 232.104 C 346.054 230.561, 345.607 230, 344.141 230 C 339.229 230, 339 228.704, 339 200.929 L 339 175 343.032 175 C 349.006 175, 353.952 177.412, 355.299 180.983 C 356.063 183.005, 357.123 184, 358.515 184 C 360.501 184, 360.577 183.570, 360.232 174.250 C 360.034 168.887, 359.689 163.938, 359.467 163.250 C 359.155 162.286, 352.002 162, 328.169 162 L 297.275 162 296.579 170.750" stroke="none" fill="black" fill-rule="evenodd"/>
</svg>